<?xml version="1.0" standalone="no"?>
<!DOCTYPE svg PUBLIC "-//W3C//DTD SVG 1.1//EN" "http://www.w3.org/Graphics/SVG/1.1/DTD/svg11.dtd" >
<svg xmlns="http://www.w3.org/2000/svg" xmlns:xlink="http://www.w3.org/1999/xlink" version="1.1">
<metadata></metadata>
<defs>
<font id="jupiter_crash_brkregular" horiz-adv-x="716" >
<font-face units-per-em="2048" ascent="1638" descent="-410" />
<missing-glyph horiz-adv-x="500" />
<glyph horiz-adv-x="0" />
<glyph horiz-adv-x="682" />
<glyph unicode=" " />
<glyph unicode="!" horiz-adv-x="307" d="M0 0v205h205v-205h-205zM0 307v1024h102v103h103v-1024h-103v-103h-102z" />
<glyph unicode="&#x22;" horiz-adv-x="614" d="M0 1126v308h205v-205h-103v-103h-102zM307 1126v308h205v-205h-102v-103h-103z" />
<glyph unicode="#" horiz-adv-x="921" d="M0 307v205h102v410h-102v204h102v205h103v103h102v-308h205v205h102v103h103v-308h102v-204h-102v-410h102v-205h-102v-205h-103v-102h-102v307h-205v-205h-102v-102h-103v307h-102zM307 512h205v410h-205v-410z" />
<glyph unicode="$" d="M0 102v308h102v102h103v-307h205v409h-308v103h-102v614h102v103h103v102h102v102h103v-204h102v-103h102v-307h-102v-102h-102v307h-205v-410h307v-102h102v-615h-102v-102h-102v-102h-103v-103h-102v205h-103v102h-102z" />
<glyph unicode="%" d="M0 102v308h102v204h103v205h102v205h103v410h102v-103h102v-307h-102v-205h-102v-205h-103v-204h-102v-410h-103v102h-102zM0 1229v205h205v-205h-205zM410 0v205h204v-205h-204z" />
<glyph unicode="&#x26;" d="M0 102v1229h102v103h103v102h102v102h103v-204h102v-103h102v-307h-102v-102h-102v307h-205v-410h307v-102h102v-103h-409v-409h205v307h102v-102h102v-308h-102v-102h-102v-102h-103v-103h-102v205h-103v102h-102z" />
<glyph unicode="'" horiz-adv-x="307" d="M0 1126v308h205v-205h-103v-103h-102z" />
<glyph unicode="(" horiz-adv-x="512" d="M0 512v410h102v307h103v102h102v103h103v-205h-103v-307h-102v-410h102v-307h103v-205h-103v102h-102v103h-103v307h-102z" />
<glyph unicode=")" horiz-adv-x="512" d="M0 0v205h102v307h103v410h-103v307h-102v205h102v-103h103v-102h102v-307h103v-410h-103v-307h-102v-103h-103v-102h-102z" />
<glyph unicode="*" horiz-adv-x="921" d="M0 614v205h102v103h103v102h-103v102h-102v205h205v-102h102v102h103v103h102v-205h102v102h205v-205h-102v-102h-103v-102h103v-103h102v-205h-205v103h-102v-103h-102v-102h-103v205h-102v-103h-205z" />
<glyph unicode="+" d="M0 614v205h205v205h205v-205h204v-205h-204v-204h-205v204h-205z" />
<glyph unicode="," horiz-adv-x="307" d="M0 205h205v-307h-103v-103h-102v410z" />
<glyph unicode="-" d="M0 614v205h614v-205h-614z" />
<glyph unicode="." horiz-adv-x="307" d="M0 0v205h205v-205h-205z" />
<glyph unicode="/" d="M0 102v308h102v204h103v205h102v205h103v410h102v-103h102v-307h-102v-205h-102v-205h-103v-204h-102v-410h-103v102h-102z" />
<glyph unicode="0" d="M0 102v1229h102v103h410v-103h102v-1229h-102v-102h-410v102h-102zM205 205h205v1024h-205v-1024z" />
<glyph unicode="1" horiz-adv-x="307" d="M0 0v1331h102v103h103v-1332h-103v-102h-102z" />
<glyph unicode="2" d="M0 102v615h102v102h308v410h-205v-307h-103v102h-102v307h102v103h410v-103h102v-614h-102v-103h-307v-409h409v-103h-102v-102h-410v102h-102z" />
<glyph unicode="3" d="M0 102v308h102v102h103v-307h205v409h-410v103h102v102h308v410h-205v-307h-103v102h-102v307h102v103h410v-103h102v-1229h-102v-102h-410v102h-102z" />
<glyph unicode="4" d="M0 717v614h102v103h103v-615h205v615h102v-103h102v-1229h-102v-102h-102v614h-308v103h-102z" />
<glyph unicode="5" d="M0 102v308h102v102h103v-307h205v409h-308v103h-102v614h102v103h410v-103h102v-102h-409v-410h307v-102h102v-615h-102v-102h-410v102h-102z" />
<glyph unicode="6" d="M0 102v1229h102v103h410v-103h102v-307h-102v-102h-102v307h-205v-410h307v-102h102v-615h-102v-102h-410v102h-102zM205 205h205v409h-205v-409z" />
<glyph unicode="7" d="M0 1229v102h102v103h410v-103h102v-1229h-102v-102h-102v1229h-410z" />
<glyph unicode="8" d="M0 102v1229h102v103h410v-103h102v-1229h-102v-102h-410v102h-102zM205 205h205v409h-205v-409zM205 819h205v410h-205v-410z" />
<glyph unicode="9" d="M0 717v614h102v103h410v-103h102v-1229h-102v-102h-102v614h-308v103h-102zM205 819h205v410h-205v-410z" />
<glyph unicode=":" horiz-adv-x="307" d="M0 0v205h205v-205h-205zM0 1229v205h205v-205h-205z" />
<glyph unicode=";" horiz-adv-x="307" d="M0 205h205v-307h-103v-103h-102v410zM0 1229v205h205v-205h-205z" />
<glyph unicode="&#x3c;" horiz-adv-x="614" d="M0 614v205h102v103h103v102h102v102h205v-204h-102v-103h-103v-205h103v-102h102v-205h-205v103h-102v102h-103v102h-102z" />
<glyph unicode="=" d="M0 410v204h614v-204h-614zM0 819v205h614v-205h-614z" />
<glyph unicode="&#x3e;" horiz-adv-x="614" d="M0 307v205h102v102h103v205h-103v103h-102v204h205v-102h102v-102h103v-103h102v-205h-102v-102h-103v-102h-102v-103h-205z" />
<glyph unicode="?" d="M0 1024v307h102v103h410v-103h102v-614h-102v-103h-102v-204h-103v-103h-102v410h102v102h103v410h-205v-307h-103v102h-102zM205 0v205h205v-205h-205z" />
<glyph unicode="@" horiz-adv-x="1536" d="M0 102v1229h102v103h1229v-103h103v-921h-103v-103h-819v103h-102v307h102v102h307v103h-409v102h102v102h410v-102h102v-512h205v717h-1024v-1024h1229v-103h-103v-102h-1229v102h-102zM614 512h205v102h-205v-102z" />
<glyph unicode="A" d="M0 102v1229h102v103h410v-103h102v-1229h-102v-102h-102v614h-205v-614h-103v102h-102zM205 819h205v410h-205v-410z" />
<glyph unicode="B" d="M0 102v1229h102v103h410v-103h102v-512h-102v-205h102v-512h-102v-102h-410v102h-102zM205 205h205v307h-103v102h-102v-409zM205 819h102v103h103v307h-205v-410z" />
<glyph unicode="C" d="M0 102v1229h102v103h410v-103h102v-307h-102v-102h-102v307h-205v-1024h205v307h102v-102h102v-308h-102v-102h-410v102h-102z" />
<glyph unicode="D" d="M0 0v1434h410v-103h102v-102h102v-1024h-102v-103h-102v-102h-410zM205 205h102v102h103v819h-103v103h-102v-1024z" />
<glyph unicode="E" d="M0 102v1229h102v103h410v-103h102v-307h-102v-102h-102v307h-205v-410h307v-102h102v-103h-409v-409h205v307h102v-102h102v-308h-102v-102h-410v102h-102z" />
<glyph unicode="F" d="M0 102v1229h102v103h410v-103h102v-307h-102v-102h-102v307h-205v-410h307v-102h102v-103h-409v-614h-103v102h-102z" />
<glyph unicode="G" d="M0 102v1229h102v103h410v-103h102v-307h-102v-102h-102v307h-205v-1024h205v512h-103v102h205v-102h102v-615h-102v-102h-410v102h-102z" />
<glyph unicode="H" d="M0 102v1229h102v103h103v-615h205v615h102v-103h102v-1229h-102v-102h-102v614h-205v-614h-103v102h-102z" />
<glyph unicode="I" d="M0 102v103h205v1024h-205v102h102v103h410v-103h102v-102h-204v-1024h204v-103h-102v-102h-410v102h-102z" />
<glyph unicode="J" d="M0 102v308h102v102h103v-307h205v1229h102v-103h102v-1229h-102v-102h-410v102h-102z" />
<glyph unicode="K" d="M0 102v1229h102v103h103v-615h102v103h103v512h102v-103h102v-512h-102v-205h102v-512h-102v-102h-102v512h-103v102h-102v-614h-103v102h-102z" />
<glyph unicode="L" d="M0 102v1229h102v103h103v-1229h409v-103h-102v-102h-410v102h-102z" />
<glyph unicode="M" horiz-adv-x="1126" d="M0 102v1229h102v103h820v-103h102v-1229h-102v-102h-103v1229h-205v-1127h-102v-102h-102v1229h-205v-1229h-103v102h-102z" />
<glyph unicode="N" d="M0 102v1229h102v103h410v-103h102v-1229h-102v-102h-102v1229h-205v-1229h-103v102h-102z" />
<glyph unicode="O" d="M0 102v1229h102v103h410v-103h102v-1229h-102v-102h-410v102h-102zM205 205h205v1024h-205v-1024z" />
<glyph unicode="P" d="M0 102v1229h102v103h410v-103h102v-614h-102v-103h-307v-614h-103v102h-102zM205 819h205v410h-205v-410z" />
<glyph unicode="Q" d="M0 102v1229h102v103h410v-103h102v-1229h-102v-102h-102v-102h-103v-103h-102v205h-103v102h-102zM205 205h205v1024h-205v-1024z" />
<glyph unicode="R" d="M0 102v1229h102v103h410v-103h102v-512h-102v-205h102v-512h-102v-102h-102v512h-103v102h-102v-614h-103v102h-102zM205 819h102v103h103v307h-205v-410z" />
<glyph unicode="S" d="M0 102v308h102v102h103v-307h205v409h-308v103h-102v614h102v103h410v-103h102v-307h-102v-102h-102v307h-205v-410h307v-102h102v-615h-102v-102h-410v102h-102z" />
<glyph unicode="T" d="M0 1229v102h102v103h410v-103h102v-102h-204v-1127h-103v-102h-102v1229h-205z" />
<glyph unicode="U" d="M0 102v1229h102v103h103v-1229h205v1229h102v-103h102v-1229h-102v-102h-410v102h-102z" />
<glyph unicode="V" d="M0 205v1126h102v103h103v-1127h205v1127h102v-103h102v-1126h-102v-103h-102v-102h-205v102h-103v103h-102z" />
<glyph unicode="W" horiz-adv-x="1126" d="M0 102v1229h102v103h103v-1229h205v1229h102v-103h102v-1126h205v1229h103v-103h102v-1229h-102v-102h-820v102h-102z" />
<glyph unicode="X" d="M0 102v512h102v205h-102v512h102v103h103v-512h205v512h102v-103h102v-512h-102v-205h102v-512h-102v-102h-102v512h-205v-512h-103v102h-102z" />
<glyph unicode="Y" d="M0 102v308h102v102h103v-307h205v409h-308v103h-102v614h102v103h103v-615h205v615h102v-103h102v-1229h-102v-102h-410v102h-102z" />
<glyph unicode="Z" d="M0 102v308h102v204h103v205h102v205h103v205h-410v102h102v103h410v-103h102v-307h-102v-205h-102v-205h-103v-204h-102v-205h409v-103h-102v-102h-410v102h-102z" />
<glyph unicode="[" horiz-adv-x="614" d="M0 102v1229h102v103h308v-103h102v-102h-307v-1024h307v-103h-102v-102h-308v102h-102z" />
<glyph unicode="\" d="M0 1024v307h102v103h103v-410h102v-205h103v-205h102v-204h102v-308h-102v-102h-102v410h-103v204h-102v205h-103v205h-102z" />
<glyph unicode="]" horiz-adv-x="614" d="M0 102v103h307v1024h-307v102h102v103h308v-103h102v-1229h-102v-102h-308v102h-102z" />
<glyph unicode="^" d="M0 1024v205h102v102h103v103h205v-103h102v-102h102v-205h-204v102h-205v-102h-205z" />
<glyph unicode="_" d="M0 -102h614v-205h-614v205z" />
<glyph unicode="`" horiz-adv-x="409" d="M0 1638v103h205v-103h102v-102h-205v102h-102z" />
<glyph unicode="a" d="M0 102v308h102v102h308v102h-410v103h102v102h410v-102h102v-615h-102v-102h-410v102h-102zM205 205h205v102h-205v-102z" />
<glyph unicode="b" d="M0 102v1229h102v103h103v-615h307v-102h102v-615h-102v-102h-410v102h-102zM205 205h205v409h-205v-409z" />
<glyph unicode="c" d="M0 102v615h102v102h410v-102h102v-205h-204v102h-205v-409h205v102h204v-205h-102v-102h-410v102h-102z" />
<glyph unicode="d" d="M0 102v615h102v102h308v615h102v-103h102v-1229h-102v-102h-410v102h-102zM205 205h205v409h-205v-409z" />
<glyph unicode="e" d="M0 102v615h102v102h410v-102h102v-307h-102v-103h-307v-102h409v-103h-102v-102h-410v102h-102zM205 512h205v102h-205v-102z" />
<glyph unicode="f" d="M0 102v1229h102v103h410v-103h102v-307h-102v-102h-102v307h-205v-410h409v-102h-102v-103h-307v-614h-103v102h-102z" />
<glyph unicode="g" d="M0 -102h410v102h-308v102h-102v615h102v102h410v-102h102v-922h-102v-102h-410v102h-102v103zM205 205h205v409h-205v-409z" />
<glyph unicode="h" d="M0 102v1229h102v103h103v-615h307v-102h102v-615h-102v-102h-102v614h-205v-614h-103v102h-102z" />
<glyph unicode="i" horiz-adv-x="307" d="M0 0v717h102v102h103v-717h-103v-102h-102zM0 922v204h205v-204h-205z" />
<glyph unicode="j" horiz-adv-x="307" d="M0 -307v1024h102v102h103v-1024h-103v-102h-102zM0 922v204h205v-204h-205z" />
<glyph unicode="k" d="M0 102v1229h102v103h103v-615h102v103h103v204h102v-102h102v-205h-102v-205h102v-512h-102v-102h-102v512h-103v102h-102v-614h-103v102h-102z" />
<glyph unicode="l" horiz-adv-x="307" d="M0 0v1331h102v103h103v-1332h-103v-102h-102z" />
<glyph unicode="m" horiz-adv-x="1126" d="M0 102v615h102v102h820v-102h102v-615h-102v-102h-103v614h-205v-512h-102v-102h-102v614h-205v-614h-103v102h-102z" />
<glyph unicode="n" d="M0 102v615h102v102h410v-102h102v-615h-102v-102h-102v614h-205v-614h-103v102h-102z" />
<glyph unicode="o" d="M0 102v615h102v102h410v-102h102v-615h-102v-102h-410v102h-102zM205 205h205v409h-205v-409z" />
<glyph unicode="p" d="M0 -205v922h102v102h410v-102h102v-615h-102v-102h-307v-307h-103v102h-102zM205 205h205v409h-205v-409z" />
<glyph unicode="q" d="M0 102v615h102v102h410v-102h102v-922h-102v-102h-102v307h-308v102h-102zM205 205h205v409h-205v-409z" />
<glyph unicode="r" d="M0 102v615h102v102h410v-102h102v-103h-409v-614h-103v102h-102z" />
<glyph unicode="s" d="M0 102v103h410v102h-308v103h-102v307h102v102h410v-102h102v-103h-409v-102h307v-102h102v-308h-102v-102h-410v102h-102z" />
<glyph unicode="t" d="M0 614v103h102v102h103v205h102v102h103v-307h102v-102h102v-103h-204v-512h-103v-102h-102v614h-205z" />
<glyph unicode="u" d="M0 102v615h102v102h103v-614h205v614h102v-102h102v-615h-102v-102h-410v102h-102z" />
<glyph unicode="v" d="M0 205v512h102v102h103v-512h205v512h102v-102h102v-512h-102v-103h-102v-102h-205v102h-103v103h-102z" />
<glyph unicode="w" horiz-adv-x="1126" d="M0 102v615h102v102h103v-614h205v614h102v-102h102v-512h205v614h103v-102h102v-615h-102v-102h-820v102h-102z" />
<glyph unicode="x" d="M0 102v205h102v205h-102v205h102v102h103v-205h205v205h102v-102h102v-205h-102v-205h102v-205h-102v-102h-102v205h-205v-205h-103v102h-102z" />
<glyph unicode="y" d="M0 102v615h102v102h103v-614h205v614h102v-102h102v-922h-102v-102h-410v102h-102v103h410v102h-308v102h-102z" />
<glyph unicode="z" d="M0 102v205h102v103h103v102h102v102h-307v103h102v102h410v-102h102v-205h-102v-102h-102v-103h-103v-102h307v-103h-102v-102h-410v102h-102z" />
<glyph unicode="{" horiz-adv-x="614" d="M0 614v205h102v103h103v307h102v102h103v103h102v-205h-102v-410h-103v-205h103v-409h102v-205h-102v102h-103v103h-102v307h-103v102h-102z" />
<glyph unicode="|" horiz-adv-x="307" d="M0 -307v1945h102v103h103v-1946h-103v-102h-102z" />
<glyph unicode="}" horiz-adv-x="614" d="M0 0v205h102v409h103v205h-103v410h-102v205h102v-103h103v-102h102v-307h103v-103h102v-205h-102v-102h-103v-307h-102v-103h-103v-102h-102z" />
<glyph unicode="~" horiz-adv-x="1126" d="M0 410v307h102v102h410v-102h102v-205h205v307h103v-102h102v-307h-102v-103h-410v103h-102v204h-205v-307h-103v103h-102z" />
<glyph d="M0 102v1229h102v103h410v-103h102v-1229h-102v-102h-410v102h-102z" />
<glyph d="M0 102v1229h102v103h410v-103h102v-1229h-102v-102h-410v102h-102z" />
<glyph d="M0 102v1229h102v103h410v-103h102v-1229h-102v-102h-410v102h-102z" />
<glyph d="M0 102v1229h102v103h410v-103h102v-1229h-102v-102h-410v102h-102z" />
<glyph d="M0 102v1229h102v103h410v-103h102v-1229h-102v-102h-410v102h-102z" />
<glyph d="M0 102v1229h102v103h410v-103h102v-1229h-102v-102h-410v102h-102z" />
<glyph d="M0 102v1229h102v103h410v-103h102v-1229h-102v-102h-410v102h-102z" />
<glyph d="M0 102v1229h102v103h410v-103h102v-1229h-102v-102h-410v102h-102z" />
<glyph d="M0 102v1229h102v103h410v-103h102v-1229h-102v-102h-410v102h-102z" />
<glyph unicode="&#xa0;" />
<glyph unicode="&#xa1;" horiz-adv-x="307" d="M0 0v1024h102v102h103v-1024h-103v-102h-102zM0 1229v205h205v-205h-205z" />
<glyph unicode="&#xa2;" d="M0 102v615h102v102h103v103h102v102h103v-205h102v-102h102v-205h-204v102h-205v-409h205v102h204v-205h-102v-102h-102v-102h-103v-103h-102v205h-103v102h-102z" />
<glyph unicode="&#xa3;" horiz-adv-x="921" d="M0 0v102h102v103h103v409h-205v103h102v102h103v512h102v103h410v-103h102v-307h-102v-102h-103v307h-204v-410h204v-102h-102v-103h-102v-409h409v-103h-102v-102h-717z" />
<glyph unicode="&#xa4;" d="M0 410v204h102v205h-102v205h205v-102h205v102h204v-205h-102v-205h102v-204h-204v102h-205v-102h-205zM205 614h205v205h-205v-205z" />
<glyph unicode="&#xa5;" d="M0 0v102h102v103h103v102h-205v103h102v102h103v102h-103v103h-102v614h102v103h103v-615h205v615h102v-103h102v-614h-102v-103h-102v-102h204v-102h-102v-103h-102v-102h204v-103h-102v-102h-512z" />
<glyph unicode="&#xa6;" horiz-adv-x="307" d="M0 -307v819h102v102h103v-819h-103v-102h-102zM0 819v819h102v103h103v-819h-103v-103h-102z" />
<glyph unicode="&#xa7;" d="M0 102h102v103h103v-307h205v409h-308v103h-102v512h102v102h-102v614h102v103h410v-103h102v-307h-102v-102h-102v307h-205v-410h307v-102h102v-512h-102v-102h102v-615h-102v-102h-410v102h-102v307zM205 512h102v102h103v308h-103v-103h-102v-307z" />
<glyph unicode="&#xa8;" d="M0 1536v205h205v-205h-205zM410 1536v205h204v-205h-204z" />
<glyph unicode="&#xa9;" horiz-adv-x="1126" d="M0 205v1024h102v102h103v103h614v-103h103v-102h102v-1024h-102v-103h-103v-102h-614v102h-103v103h-102zM205 307h102v-102h410v102h102v819h-102v103h-410v-103h-102v-819zM307 512v410h103v-410h204v-102h-204v102h-103zM410 922v102h204v-102h103v-103h-103v103h-204 zM614 512v102h103v-102h-103z" />
<glyph unicode="&#xaa;" d="M0 1126v308h102v102h308v102h-410v103h102v102h410v-102h102v-615h-102v-102h-410v102h-102zM205 1229h205v102h-205v-102z" />
<glyph unicode="&#xab;" horiz-adv-x="921" d="M0 614v205h102v103h103v102h205v-102h-103v-103h-102v-205h102v-102h103v-102h-205v102h-103v102h-102zM410 614v205h102v103h102v102h205v-102h-102v-103h-103v-205h103v-102h102v-102h-205v102h-102v102h-102z" />
<glyph unicode="&#xac;" d="M0 614v205h614v-307h-204v102h-410z" />
<glyph unicode="&#xad;" d="M0 614v205h614v-205h-614z" />
<glyph unicode="&#xae;" horiz-adv-x="1126" d="M0 205v1024h102v102h103v103h614v-103h103v-102h102v-1024h-102v-103h-103v-102h-614v102h-103v103h-102zM205 307h102v-102h410v102h102v819h-102v103h-410v-103h-102v-819zM307 410v614h307v-102h103v-205h-103v205h-204v-205h204v-103h103v-204h-103v204h-204v-204 h-103z" />
<glyph unicode="&#xaf;" d="M0 1638v205h614v-205h-614z" />
<glyph unicode="&#xb0;" d="M0 1331v410h102v102h410v-102h102v-410h-102v-102h-410v102h-102zM205 1434h205v204h-205v-204z" />
<glyph unicode="&#xb1;" d="M0 410v204h614v-204h-614zM0 1024v205h205v205h205v-205h204v-205h-204v-205h-205v205h-205z" />
<glyph unicode="&#xb2;" d="M0 1126v308h102v102h308v102h-410v103h102v102h410v-102h102v-307h-102v-103h-307v-102h409v-103h-102v-102h-410v102h-102z" />
<glyph unicode="&#xb3;" d="M0 1126v103h410v102h-410v103h102v102h308v102h-410v103h102v102h410v-102h102v-615h-102v-102h-410v102h-102z" />
<glyph unicode="&#xb4;" horiz-adv-x="409" d="M0 1536v102h102v103h205v-103h-102v-102h-205z" />
<glyph unicode="&#xb5;" d="M0 -205v922h102v102h103v-614h205v614h102v-102h102v-615h-102v-102h-307v-307h-103v102h-102z" />
<glyph unicode="&#xb6;" horiz-adv-x="921" d="M0 717v614h102v103h615v-103h102v-1229h-102v-102h-103v1229h-102v-1229h-102v102h-103v512h-205v103h-102z" />
<glyph unicode="&#xb7;" horiz-adv-x="307" d="M0 614v205h205v-205h-205z" />
<glyph unicode="&#xb8;" horiz-adv-x="409" d="M0 -102h102v102h205v-102h-102v-103h-205v103z" />
<glyph unicode="&#xb9;" horiz-adv-x="307" d="M0 1024v717h102v102h103v-717h-103v-102h-102z" />
<glyph unicode="&#xba;" d="M0 1126v615h102v102h410v-102h102v-615h-102v-102h-410v102h-102zM205 1229h205v409h-205v-409z" />
<glyph unicode="&#xbb;" horiz-adv-x="921" d="M0 410v102h102v102h103v205h-103v103h-102v102h205v-102h102v-103h103v-205h-103v-102h-102v-102h-205zM410 410v102h102v102h102v205h-102v103h-102v102h204v-102h103v-103h102v-205h-102v-102h-103v-102h-204z" />
<glyph unicode="&#xbc;" d="M0 102v308h102v204h103v205h102v205h103v410h102v-103h102v-307h-102v-205h-102v-205h-103v-204h103v-205h102v205h102v-512h-102v204h-205v308h-102v-410h-103v102h-102zM0 1434v102h205v-512h-103v410h-102z" />
<glyph unicode="&#xbd;" d="M0 102v308h102v204h103v205h102v205h103v410h102v-103h102v-307h-102v-205h-102v-205h-103v-204h307v-308h-204v-102h204v-102h-307v307h205v102h-205v103h-102v-410h-103v102h-102zM0 1434v102h205v-512h-103v410h-102z" />
<glyph unicode="&#xbe;" d="M0 102v308h102v204h103v205h102v205h-307v102h205v103h-205v102h205v103h-205v102h307v-512h103v410h102v-103h102v-307h-102v-205h-102v-205h-103v-204h103v-205h102v205h102v-512h-102v204h-205v308h-102v-410h-103v102h-102z" />
<glyph unicode="&#xbf;" d="M0 102v615h102v102h103v205h102v102h103v-409h-103v-103h-102v-409h205v307h102v-102h102v-308h-102v-102h-410v102h-102zM205 1229v205h205v-205h-205z" />
<glyph unicode="&#xc0;" d="M0 102v1229h102v103h410v-103h102v-1229h-102v-102h-102v614h-205v-614h-103v102h-102zM102 1638v103h205v-103h103v-102h-205v102h-103zM205 819h205v410h-205v-410z" />
<glyph unicode="&#xc1;" d="M0 102v1229h102v103h410v-103h102v-1229h-102v-102h-102v614h-205v-614h-103v102h-102zM205 819h205v410h-205v-410zM205 1536v102h102v103h205v-103h-102v-102h-205z" />
<glyph unicode="&#xc2;" d="M0 102v1229h102v103h410v-103h102v-1229h-102v-102h-102v614h-205v-614h-103v102h-102zM0 1536v102h102v103h103v102h205v-102h102v-103h102v-102h-204v102h-205v-102h-205zM205 819h205v410h-205v-410z" />
<glyph unicode="&#xc3;" d="M0 102v1229h102v103h410v-103h102v-1229h-102v-102h-102v614h-205v-614h-103v102h-102zM0 1536v102h102v103h205v-103h103v103h204v-103h-102v-102h-205v102h-102v-102h-205zM205 819h205v410h-205v-410z" />
<glyph unicode="&#xc4;" d="M0 102v1229h102v103h410v-103h102v-1229h-102v-102h-102v614h-205v-614h-103v102h-102zM0 1536v205h205v-205h-205zM205 819h205v410h-205v-410zM410 1536v205h204v-205h-204z" />
<glyph unicode="&#xc5;" d="M0 102v1229h102v103h410v-103h102v-1229h-102v-102h-102v614h-205v-614h-103v102h-102zM102 1536v307h410v-307h-410zM205 819h205v410h-205v-410zM205 1638h205v103h-205v-103z" />
<glyph unicode="&#xc6;" horiz-adv-x="1126" d="M0 102v1229h102v103h820v-103h102v-307h-102v-102h-103v307h-205v-410h308v-102h102v-103h-410v-409h205v307h103v-102h102v-308h-102v-102h-410v102h-102v512h-205v-614h-103v102h-102zM205 819h205v410h-205v-410z" />
<glyph unicode="&#xc7;" d="M0 102v1229h102v103h410v-103h102v-307h-102v-102h-102v307h-205v-1024h205v307h102v-102h102v-308h-102v-102h-102v-102h-103v-103h-205v103h103v102h-103v102h-102z" />
<glyph unicode="&#xc8;" d="M0 102v1229h102v103h410v-103h102v-307h-102v-102h-102v307h-205v-410h307v-102h102v-103h-409v-409h205v307h102v-102h102v-308h-102v-102h-410v102h-102zM102 1638v103h205v-103h103v-102h-205v102h-103z" />
<glyph unicode="&#xc9;" d="M0 102v1229h102v103h410v-103h102v-307h-102v-102h-102v307h-205v-410h307v-102h102v-103h-409v-409h205v307h102v-102h102v-308h-102v-102h-410v102h-102zM205 1536v102h102v103h205v-103h-102v-102h-205z" />
<glyph unicode="&#xca;" d="M0 102v1229h102v103h410v-103h102v-307h-102v-102h-102v307h-205v-410h307v-102h102v-103h-409v-409h205v307h102v-102h102v-308h-102v-102h-410v102h-102zM0 1536v102h102v103h103v102h205v-102h102v-103h102v-102h-204v102h-205v-102h-205z" />
<glyph unicode="&#xcb;" d="M0 102v1229h102v103h410v-103h102v-307h-102v-102h-102v307h-205v-410h307v-102h102v-103h-409v-409h205v307h102v-102h102v-308h-102v-102h-410v102h-102zM0 1536v205h205v-205h-205zM410 1536v205h204v-205h-204z" />
<glyph unicode="&#xcc;" d="M0 102v103h205v1024h-205v102h102v103h410v-103h102v-102h-204v-1024h204v-103h-102v-102h-410v102h-102zM102 1638v103h205v-103h103v-102h-205v102h-103z" />
<glyph unicode="&#xcd;" d="M0 102v103h205v1024h-205v102h102v103h410v-103h102v-102h-204v-1024h204v-103h-102v-102h-410v102h-102zM205 1536v102h102v103h205v-103h-102v-102h-205z" />
<glyph unicode="&#xce;" d="M0 102v103h205v1024h-205v102h102v103h410v-103h102v-102h-204v-1024h204v-103h-102v-102h-410v102h-102zM0 1536v102h102v103h103v102h205v-102h102v-103h102v-102h-204v102h-205v-102h-205z" />
<glyph unicode="&#xcf;" d="M0 102v103h205v1024h-205v102h102v103h410v-103h102v-102h-204v-1024h204v-103h-102v-102h-410v102h-102zM0 1536v205h205v-205h-205zM410 1536v205h204v-205h-204z" />
<glyph unicode="&#xd0;" horiz-adv-x="819" d="M0 614v205h102v615h410v-103h102v-102h103v-1024h-103v-103h-102v-102h-410v614h-102zM307 205h103v102h102v819h-102v103h-103v-410h103v-205h-103v-409z" />
<glyph unicode="&#xd1;" d="M0 102v1229h102v103h410v-103h102v-1229h-102v-102h-102v1229h-205v-1229h-103v102h-102zM0 1536v102h102v103h205v-103h103v103h204v-103h-102v-102h-205v102h-102v-102h-205z" />
<glyph unicode="&#xd2;" d="M0 102v1229h102v103h410v-103h102v-1229h-102v-102h-410v102h-102zM102 1638v103h205v-103h103v-102h-205v102h-103zM205 205h205v1024h-205v-1024z" />
<glyph unicode="&#xd3;" d="M0 102v1229h102v103h410v-103h102v-1229h-102v-102h-410v102h-102zM205 205h205v1024h-205v-1024zM205 1536v102h102v103h205v-103h-102v-102h-205z" />
<glyph unicode="&#xd4;" d="M0 102v1229h102v103h410v-103h102v-1229h-102v-102h-410v102h-102zM0 1536v102h102v103h103v102h205v-102h102v-103h102v-102h-204v102h-205v-102h-205zM205 205h205v1024h-205v-1024z" />
<glyph unicode="&#xd5;" d="M0 102v1229h102v103h410v-103h102v-1229h-102v-102h-410v102h-102zM0 1536v102h102v103h205v-103h103v103h204v-103h-102v-102h-205v102h-102v-102h-205zM205 205h205v1024h-205v-1024z" />
<glyph unicode="&#xd6;" d="M0 102v1229h102v103h410v-103h102v-1229h-102v-102h-410v102h-102zM0 1536v205h205v-205h-205zM205 205h205v1024h-205v-1024zM410 1536v205h204v-205h-204z" />
<glyph unicode="&#xd7;" d="M0 307v205h102v102h103v205h-103v103h-102v204h102v103h103v-205h205v205h102v-103h102v-204h-102v-103h-102v-205h102v-102h102v-205h-102v-102h-102v205h-205v-205h-103v102h-102z" />
<glyph unicode="&#xd8;" d="M0 -205v1536h102v103h308v102h102v102h102v-1536h-102v-102h-307v-102h-103v-103h-102zM205 205h205v409h-103v-102h-102v-307zM205 819h102v103h103v307h-205v-410z" />
<glyph unicode="&#xd9;" d="M0 102v1229h102v103h103v-1229h205v1229h102v-103h102v-1229h-102v-102h-410v102h-102zM102 1638v103h205v-103h103v-102h-205v102h-103z" />
<glyph unicode="&#xda;" d="M0 102v1229h102v103h103v-1229h205v1229h102v-103h102v-1229h-102v-102h-410v102h-102zM205 1536v102h102v103h205v-103h-102v-102h-205z" />
<glyph unicode="&#xdb;" d="M0 102v1229h102v103h103v-1229h205v1229h102v-103h102v-1229h-102v-102h-410v102h-102zM0 1536v102h102v103h103v102h205v-102h102v-103h102v-102h-204v102h-205v-102h-205z" />
<glyph unicode="&#xdc;" d="M0 102v1229h102v103h103v-1229h205v1229h102v-103h102v-1229h-102v-102h-410v102h-102zM0 1536v205h205v-205h-205zM410 1536v205h204v-205h-204z" />
<glyph unicode="&#xdd;" d="M0 102v308h102v102h103v-307h205v409h-308v103h-102v614h102v103h103v-615h205v615h102v-103h102v-1229h-102v-102h-410v102h-102zM205 1536v102h102v103h205v-103h-102v-102h-205z" />
<glyph unicode="&#xde;" d="M0 102v1229h102v103h103v-308h307v-102h102v-614h-102v-103h-307v-307h-103v102h-102zM205 512h205v410h-205v-410z" />
<glyph unicode="&#xdf;" d="M0 102v1229h102v103h410v-103h102v-512h-102v-205h102v-512h-102v-102h-205v205h103v409h-103v205h103v410h-205v-1229h-103v102h-102z" />
<glyph unicode="&#xe0;" d="M0 102v308h102v102h308v102h-410v103h102v102h410v-102h102v-615h-102v-102h-410v102h-102zM102 1024v102h205v-102h103v-102h-205v102h-103zM205 205h205v102h-205v-102z" />
<glyph unicode="&#xe1;" d="M0 102v308h102v102h308v102h-410v103h102v102h410v-102h102v-615h-102v-102h-410v102h-102zM205 205h205v102h-205v-102zM205 922v102h102v102h205v-102h-102v-102h-205z" />
<glyph unicode="&#xe2;" d="M0 102v308h102v102h308v102h-410v103h102v102h410v-102h102v-615h-102v-102h-410v102h-102zM0 922v102h102v102h103v103h205v-103h102v-102h102v-102h-204v102h-205v-102h-205zM205 205h205v102h-205v-102z" />
<glyph unicode="&#xe3;" d="M0 102v308h102v102h308v102h-410v103h102v102h410v-102h102v-615h-102v-102h-410v102h-102zM0 922v102h102v102h205v-102h103v102h204v-102h-102v-102h-205v102h-102v-102h-205zM205 205h205v102h-205v-102z" />
<glyph unicode="&#xe4;" d="M0 102v308h102v102h308v102h-410v103h102v102h410v-102h102v-615h-102v-102h-410v102h-102zM0 922v204h205v-204h-205zM205 205h205v102h-205v-102zM410 922v204h204v-204h-204z" />
<glyph unicode="&#xe5;" d="M0 102v308h102v102h308v102h-410v103h102v102h410v-102h102v-615h-102v-102h-410v102h-102zM102 922v307h410v-307h-410zM205 205h205v102h-205v-102zM205 1024h205v102h-205v-102z" />
<glyph unicode="&#xe6;" horiz-adv-x="1126" d="M0 102v308h102v102h308v102h-410v103h102v102h820v-102h102v-307h-102v-103h-308v-102h410v-103h-102v-102h-820v102h-102zM205 205h205v102h-205v-102zM614 512h205v102h-205v-102z" />
<glyph unicode="&#xe7;" d="M0 102v615h102v102h410v-102h102v-205h-204v102h-205v-409h205v102h204v-205h-102v-102h-102v-102h-103v-103h-205v103h103v102h-103v102h-102z" />
<glyph unicode="&#xe8;" d="M0 102v615h102v102h410v-102h102v-307h-102v-103h-307v-102h409v-103h-102v-102h-410v102h-102zM102 1024v102h205v-102h103v-102h-205v102h-103zM205 512h205v102h-205v-102z" />
<glyph unicode="&#xe9;" d="M0 102v615h102v102h410v-102h102v-307h-102v-103h-307v-102h409v-103h-102v-102h-410v102h-102zM205 512h205v102h-205v-102zM205 922v102h102v102h205v-102h-102v-102h-205z" />
<glyph unicode="&#xea;" d="M0 102v615h102v102h410v-102h102v-307h-102v-103h-307v-102h409v-103h-102v-102h-410v102h-102zM0 922v102h102v102h103v103h205v-103h102v-102h102v-102h-204v102h-205v-102h-205zM205 512h205v102h-205v-102z" />
<glyph unicode="&#xeb;" d="M0 102v615h102v102h410v-102h102v-307h-102v-103h-307v-102h409v-103h-102v-102h-410v102h-102zM0 922v204h205v-204h-205zM205 512h205v102h-205v-102zM410 922v204h204v-204h-204z" />
<glyph unicode="&#xec;" horiz-adv-x="409" d="M0 1024v102h205v-102h102v-102h-205v102h-102zM102 0v717h103v102h102v-717h-102v-102h-103z" />
<glyph unicode="&#xed;" horiz-adv-x="409" d="M102 0v717h103v102h102v-717h-102v-102h-103zM102 922v102h103v102h205v-102h-103v-102h-205z" />
<glyph unicode="&#xee;" horiz-adv-x="409" d="M102 0v717h103v102h102v-717h-102v-102h-103zM102 922v204h103v103h102v-103h103v-204h-103v102h-102v-102h-103z" />
<glyph unicode="&#xef;" horiz-adv-x="409" d="M102 0v717h103v102h102v-717h-102v-102h-103zM102 922v204h103v-204h-103zM307 922v204h103v-204h-103z" />
<glyph unicode="&#xf0;" d="M0 102v615h102v102h308v307h-103v-102h-102v205h102v102h-102v103h205v-103h102v103h102v-205h-102v-103h102v-1024h-102v-102h-410v102h-102zM205 205h205v409h-205v-409z" />
<glyph unicode="&#xf1;" d="M0 102v615h102v102h410v-102h102v-615h-102v-102h-102v614h-205v-614h-103v102h-102zM0 922v102h102v102h205v-102h103v102h204v-102h-102v-102h-205v102h-102v-102h-205z" />
<glyph unicode="&#xf2;" d="M0 102v615h102v102h410v-102h102v-615h-102v-102h-410v102h-102zM102 1024v102h205v-102h103v-102h-205v102h-103zM205 205h205v409h-205v-409z" />
<glyph unicode="&#xf3;" d="M0 102v615h102v102h410v-102h102v-615h-102v-102h-410v102h-102zM205 205h205v409h-205v-409zM205 922v102h102v102h205v-102h-102v-102h-205z" />
<glyph unicode="&#xf4;" d="M0 102v615h102v102h410v-102h102v-615h-102v-102h-410v102h-102zM0 922v102h102v102h103v103h205v-103h102v-102h102v-102h-204v102h-205v-102h-205zM205 205h205v409h-205v-409z" />
<glyph unicode="&#xf5;" d="M0 102v615h102v102h410v-102h102v-615h-102v-102h-410v102h-102zM0 922v102h102v102h205v-102h103v102h204v-102h-102v-102h-205v102h-102v-102h-205zM205 205h205v409h-205v-409z" />
<glyph unicode="&#xf6;" d="M0 102v615h102v102h410v-102h102v-615h-102v-102h-410v102h-102zM0 922v204h205v-204h-205zM205 205h205v409h-205v-409zM410 922v204h204v-204h-204z" />
<glyph unicode="&#xf7;" d="M0 614v103h102v102h512v-102h-102v-103h-512zM205 307v205h205v-205h-205zM205 922v204h205v-204h-205z" />
<glyph unicode="&#xf8;" d="M0 -205v922h102v102h308v103h102v102h102v-922h-102v-102h-307v-102h-103v-103h-102zM205 205h205v102h-205v-102zM205 512h205v102h-205v-102z" />
<glyph unicode="&#xf9;" d="M0 102v615h102v102h103v-614h205v614h102v-102h102v-615h-102v-102h-410v102h-102zM102 1024v102h205v-102h103v-102h-205v102h-103z" />
<glyph unicode="&#xfa;" d="M0 102v615h102v102h103v-614h205v614h102v-102h102v-615h-102v-102h-410v102h-102zM205 922v102h102v102h205v-102h-102v-102h-205z" />
<glyph unicode="&#xfb;" d="M0 102v615h102v102h103v-614h205v614h102v-102h102v-615h-102v-102h-410v102h-102zM0 922v102h102v102h103v103h205v-103h102v-102h102v-102h-204v102h-205v-102h-205z" />
<glyph unicode="&#xfc;" d="M0 102v615h102v102h103v-614h205v614h102v-102h102v-615h-102v-102h-410v102h-102zM0 922v204h205v-204h-205zM410 922v204h204v-204h-204z" />
<glyph unicode="&#xfd;" d="M0 102v615h102v102h103v-614h205v614h102v-102h102v-922h-102v-102h-410v102h-102v103h410v102h-308v102h-102zM205 922v102h102v102h205v-102h-102v-102h-205z" />
<glyph unicode="&#xfe;" d="M0 102v1229h102v103h103v-410h102v102h205v-102h102v-614h-102v-103h-205v103h-102v-410h-103v102h-102zM205 614h102v-102h103v410h-103v-103h-102v-205z" />
<glyph unicode="&#xff;" d="M0 102v615h102v102h103v-614h205v614h102v-102h102v-922h-102v-102h-410v102h-102v103h410v102h-308v102h-102zM0 922v204h205v-204h-205zM410 922v204h204v-204h-204z" />
<glyph unicode="&#x152;" horiz-adv-x="1126" d="M0 102v1229h102v103h820v-103h102v-307h-102v-102h-103v307h-205v-410h308v-102h102v-103h-410v-409h205v307h103v-102h102v-308h-102v-102h-820v102h-102zM205 205h205v1024h-205v-1024z" />
<glyph unicode="&#x153;" horiz-adv-x="1126" d="M0 102v615h102v102h820v-102h102v-307h-102v-103h-308v-102h410v-103h-102v-102h-820v102h-102zM205 205h205v409h-205v-409zM614 512h205v102h-205v-102z" />
<glyph unicode="&#x178;" d="M0 102v308h102v102h103v-307h205v409h-308v103h-102v614h102v103h103v-615h205v615h102v-103h102v-1229h-102v-102h-410v102h-102zM0 1536v205h205v-205h-205zM410 1536v205h204v-205h-204z" />
<glyph unicode="&#x2c6;" d="M0 1536v102h102v103h103v102h205v-102h102v-103h102v-102h-204v102h-205v-102h-205z" />
<glyph unicode="&#x2dc;" d="M0 1536v102h102v103h205v-103h103v103h204v-103h-102v-102h-205v102h-102v-102h-205z" />
<glyph unicode="&#x2000;" horiz-adv-x="921" />
<glyph unicode="&#x2001;" horiz-adv-x="1843" />
<glyph unicode="&#x2002;" horiz-adv-x="921" />
<glyph unicode="&#x2003;" horiz-adv-x="1843" />
<glyph unicode="&#x2004;" horiz-adv-x="614" />
<glyph unicode="&#x2005;" horiz-adv-x="460" />
<glyph unicode="&#x2006;" horiz-adv-x="307" />
<glyph unicode="&#x2007;" horiz-adv-x="307" />
<glyph unicode="&#x2008;" horiz-adv-x="230" />
<glyph unicode="&#x2009;" horiz-adv-x="368" />
<glyph unicode="&#x200a;" horiz-adv-x="102" />
<glyph unicode="&#x2010;" d="M0 614v205h614v-205h-614z" />
<glyph unicode="&#x2011;" d="M0 614v205h614v-205h-614z" />
<glyph unicode="&#x2012;" d="M0 614v205h614v-205h-614z" />
<glyph unicode="&#x2013;" horiz-adv-x="921" d="M0 614v205h819v-205h-819z" />
<glyph unicode="&#x2014;" horiz-adv-x="1126" d="M0 614v205h1024v-205h-1024z" />
<glyph unicode="&#x2018;" horiz-adv-x="307" d="M0 1229v307h102v-102h103v-205h-205z" />
<glyph unicode="&#x2019;" horiz-adv-x="307" d="M0 1229v205h205v-308h-103v103h-102z" />
<glyph unicode="&#x201a;" horiz-adv-x="307" d="M0 205h205v-307h-103v-103h-102v410z" />
<glyph unicode="&#x201c;" horiz-adv-x="614" d="M0 1229v307h102v-102h103v-205h-205zM307 1229v307h103v-102h102v-205h-205z" />
<glyph unicode="&#x201d;" horiz-adv-x="614" d="M0 1229v205h205v-308h-103v103h-102zM307 1229v205h205v-308h-102v103h-103z" />
<glyph unicode="&#x201e;" horiz-adv-x="614" d="M0 205h205v-307h-103v-103h-102v410zM307 205h205v-307h-102v-103h-103v410z" />
<glyph unicode="&#x2022;" horiz-adv-x="512" d="M0 614v205h102v103h205v-103h103v-205h-103v-102h-205v102h-102z" />
<glyph unicode="&#x2026;" horiz-adv-x="921" d="M0 0v205h205v-205h-205zM307 0v205h205v-205h-205zM614 0v205h205v-205h-205z" />
<glyph unicode="&#x202f;" horiz-adv-x="368" />
<glyph unicode="&#x2039;" horiz-adv-x="512" d="M0 614v205h102v103h103v102h205v-102h-103v-103h-102v-205h102v-102h103v-102h-205v102h-103v102h-102z" />
<glyph unicode="&#x203a;" horiz-adv-x="512" d="M0 410v102h102v102h103v205h-103v103h-102v102h205v-102h102v-103h103v-205h-103v-102h-102v-102h-205z" />
<glyph unicode="&#x205f;" horiz-adv-x="460" />
<glyph unicode="&#x2122;" horiz-adv-x="921" d="M0 102v410h102v102h615v-102h102v-410h-102v-102h-103v410h-102v-410h-205v410h-102v-410h-103v102h-102zM0 1229v102h102v103h615v-103h102v-102h-307v-410h-205v410h-307z" />
<glyph unicode="&#x25fc;" horiz-adv-x="819" d="M0 0v819h819v-819h-819z" />
</font>
</defs>
</svg>
